<svg xmlns="http://www.w3.org/2000/svg" width="840" height="875" viewBox="0 0 840 875" font-family="ui-monospace, SFMono-Regular, Menlo, Consolas, monospace"><defs><linearGradient id="bg" x1="0" y1="0" x2="0" y2="1"><stop offset="0" stop-color="#111722"/><stop offset="1" stop-color="#0d1117"/></linearGradient></defs><rect width="840" height="875" rx="12" fill="url(#bg)"/><rect x="0.5" y="0.5" width="839" height="874" rx="12" fill="none" stroke="#30363d" stroke-width="1"/><line x1="0" y1="30" x2="840" y2="30" stroke="#30363d"/><circle cx="20" cy="15.0" r="5" fill="#ff5f56"/><circle cx="36" cy="15.0" r="5" fill="#ffbd2e"/><circle cx="52" cy="15.0" r="5" fill="#27c93f"/><text x="420.0" y="19.0" fill="#7d8590" font-size="12" text-anchor="middle">karan@github: ~$ ./portrait.sh</text><g transform="translate(420,400)"><ellipse cx="0" cy="0" rx="280" ry="90" fill="none" stroke="#00D9FF" stroke-width="2" opacity="0.8"><animateTransform attributeName="transform" type="rotate" from="0" to="360" dur="20s" repeatCount="indefinite"/></ellipse><ellipse cx="0" cy="0" rx="280" ry="90" fill="none" stroke="#00D9FF" stroke-width="2" opacity="0.8" transform="rotate(60)"><animateTransform attributeName="transform" type="rotate" from="60" to="420" dur="20s" repeatCount="indefinite"/></ellipse><ellipse cx="0" cy="0" rx="280" ry="90" fill="none" stroke="#00D9FF" stroke-width="2" opacity="0.8" transform="rotate(120)"><animateTransform attributeName="transform" type="rotate" from="120" to="480" dur="20s" repeatCount="indefinite"/></ellipse><circle cx="0" cy="0" r="16" fill="#00D9FF"><animate attributeName="r" values="14;18;14" dur="2s" repeatCount="indefinite"/></circle><circle cx="0" cy="0" r="8" fill="#ffffff" opacity="0.9"/><circle cx="280" cy="0" r="6" fill="#ff6b6b"><animateMotion dur="20s" repeatCount="indefinite" path="M280,0 A280,90 0 1,1 279.99,0"/></circle><circle cx="-280" cy="0" r="6" fill="#ffd93d"><animateMotion dur="20s" repeatCount="indefinite" path="M-280,0 A280,90 0 1,1 -279.99,0" begin="-6.67s"/></circle><circle cx="0" cy="-90" r="6" fill="#6bcb77"><animateMotion dur="20s" repeatCount="indefinite" path="M0,-90 A280,90 0 1,1 0.01,-90" begin="-13.33s"/></circle></g><text x="420" y="540" fill="#c9d1d9" font-size="48" font-weight="700" text-anchor="middle">KARAN SHARMA</text><text x="420" y="570" fill="#7d8590" font-size="16" text-anchor="middle">Generative AI · NLP · LLMs</text><line x1="0" y1="825" x2="840" y2="825" stroke="#30363d"/><text x="20" y="845" fill="#7d8590" font-size="13">karan@github:~$ whoami <tspan fill="#c9d1d9">Karan Sharma</tspan></text></svg>